REM DIRINDEX 1\2,1\3,1\4,1\5,1\6,1\7,1\8
REM DIRNAME cjc150,folder01,folder02,folder03,folder04,folder05,folder06,folder07
TITLE ""
FILE "009 でる文49.mp3" MP3
  TRACK 01 AUDIO
    TITLE "0:"
    INDEX 01 00:00:00
  TRACK 02 AUDIO
    TITLE "8:cjc150_2299"
    INDEX 01 00:00:01
  TRACK 03 AUDIO
    TITLE "0:"
    INDEX 01 00:01:60
  TRACK 04 AUDIO
    TITLE "2:cjc150_2300"
    INDEX 01 00:02:47
  TRACK 05 AUDIO
    TITLE "0:"
    INDEX 01 00:09:40
  TRACK 06 AUDIO
    TITLE "8:cjc150_2301"
    INDEX 01 00:10:70
  TRACK 07 AUDIO
    TITLE "0:"
    INDEX 01 00:13:47
  TRACK 08 AUDIO
    TITLE "3:cjc150_2302"
    INDEX 01 00:14:31
  TRACK 09 AUDIO
    TITLE "3:cjc150_2303"
    INDEX 01 00:17:02
  TRACK 10 AUDIO
    TITLE "3:cjc150_2304"
    INDEX 01 00:19:42
  TRACK 11 AUDIO
    TITLE "3:cjc150_2305"
    INDEX 01 00:20:65
  TRACK 12 AUDIO
    TITLE "3:cjc150_2306"
    INDEX 01 00:22:19
  TRACK 13 AUDIO
    TITLE "3:cjc150_2307"
    INDEX 01 00:23:65
  TRACK 14 AUDIO
    TITLE "3:cjc150_2308"
    INDEX 01 00:25:29
  TRACK 15 AUDIO
    TITLE "3:cjc150_2309"
    INDEX 01 00:27:34
  TRACK 16 AUDIO
    TITLE "3:cjc150_2310"
    INDEX 01 00:29:38
  TRACK 17 AUDIO
    TITLE "3:cjc150_2311"
    INDEX 01 00:31:22
  TRACK 18 AUDIO
    TITLE "8:cjc150_2312"
    INDEX 01 00:33:05
  TRACK 19 AUDIO
    TITLE "0:"
    INDEX 01 00:35:57
  TRACK 20 AUDIO
    TITLE "4:cjc150_2313"
    INDEX 01 00:36:42
  TRACK 21 AUDIO
    TITLE "4:cjc150_2314"
    INDEX 01 00:39:58
  TRACK 22 AUDIO
    TITLE "4:cjc150_2315"
    INDEX 01 00:43:39
  TRACK 23 AUDIO
    TITLE "4:cjc150_2316"
    INDEX 01 00:46:31
  TRACK 24 AUDIO
    TITLE "4:cjc150_2317"
    INDEX 01 00:49:65
  TRACK 25 AUDIO
    TITLE "4:cjc150_2318"
    INDEX 01 00:51:44
  TRACK 26 AUDIO
    TITLE "8:cjc150_2319"
    INDEX 01 00:53:62
  TRACK 27 AUDIO
    TITLE "0:"
    INDEX 01 00:56:57
  TRACK 28 AUDIO
    TITLE "5:cjc150_2320"
    INDEX 01 00:57:41
  TRACK 29 AUDIO
    TITLE "5:cjc150_2321"
    INDEX 01 00:59:45
  TRACK 30 AUDIO
    TITLE "5:cjc150_2322"
    INDEX 01 01:03:00
  TRACK 31 AUDIO
    TITLE "5:cjc150_2323"
    INDEX 01 01:05:46
  TRACK 32 AUDIO
    TITLE "5:cjc150_2324"
    INDEX 01 01:08:09
  TRACK 33 AUDIO
    TITLE "5:cjc150_2325"
    INDEX 01 01:09:44
  TRACK 34 AUDIO
    TITLE "5:cjc150_2326"
    INDEX 01 01:11:51
  TRACK 35 AUDIO
    TITLE "5:cjc150_2327"
    INDEX 01 01:13:00
  TRACK 36 AUDIO
    TITLE "5:cjc150_2328"
    INDEX 01 01:14:19
  TRACK 37 AUDIO
    TITLE "5:cjc150_2329"
    INDEX 01 01:15:74
  TRACK 38 AUDIO
    TITLE "5:cjc150_2330"
    INDEX 01 01:18:31
  TRACK 39 AUDIO
    TITLE "5:cjc150_2331"
    INDEX 01 01:20:00
  TRACK 40 AUDIO
    TITLE "5:cjc150_2332"
    INDEX 01 01:21:35
  TRACK 41 AUDIO
    TITLE "5:cjc150_2333"
    INDEX 01 01:23:34
  TRACK 42 AUDIO
    TITLE "5:cjc150_2334"
    INDEX 01 01:25:37
  TRACK 43 AUDIO
    TITLE "5:cjc150_2335"
    INDEX 01 01:27:38
  TRACK 44 AUDIO
    TITLE "5:cjc150_2336"
    INDEX 01 01:29:37
  TRACK 45 AUDIO
    TITLE "5:cjc150_2337"
    INDEX 01 01:30:60
  TRACK 46 AUDIO
    TITLE "5:cjc150_2338"
    INDEX 01 01:32:35
  TRACK 47 AUDIO
    TITLE "5:cjc150_2339"
    INDEX 01 01:34:22
  TRACK 48 AUDIO
    TITLE "8:cjc150_2340"
    INDEX 01 01:36:01
  TRACK 49 AUDIO
    TITLE "0:"
    INDEX 01 01:38:57
  TRACK 50 AUDIO
    TITLE "6:cjc150_2341"
    INDEX 01 01:39:47
  TRACK 51 AUDIO
    TITLE "6:cjc150_2342"
    INDEX 01 01:42:35
  TRACK 52 AUDIO
    TITLE "6:cjc150_2343"
    INDEX 01 01:46:49
  TRACK 53 AUDIO
    TITLE "6:cjc150_2344"
    INDEX 01 01:49:65
  TRACK 54 AUDIO
    TITLE "6:cjc150_2345"
    INDEX 01 01:53:08
  TRACK 55 AUDIO
    TITLE "6:cjc150_2346"
    INDEX 01 01:56:16
  TRACK 56 AUDIO
    TITLE "6:cjc150_2347"
    INDEX 01 02:00:00
  TRACK 57 AUDIO
    TITLE "6:cjc150_2348"
    INDEX 01 02:02:66
  TRACK 58 AUDIO
    TITLE "6:cjc150_2349"
    INDEX 01 02:05:56
  TRACK 59 AUDIO
    TITLE "6:cjc150_2350"
    INDEX 01 02:07:08
  TRACK 60 AUDIO
    TITLE "6:cjc150_2351"
    INDEX 01 02:09:46
  TRACK 61 AUDIO
    TITLE "6:cjc150_2352"
    INDEX 01 02:11:33
  TRACK 62 AUDIO
    TITLE "8:cjc150_2353"
    INDEX 01 02:12:36
  TRACK 63 AUDIO
    TITLE "0:"
    INDEX 01 02:14:16
  TRACK 64 AUDIO
    TITLE "7:cjc150_2354"
    INDEX 01 02:14:73
  TRACK 65 AUDIO
    TITLE "7:cjc150_2355"
    INDEX 01 02:21:71
  TRACK 66 AUDIO
    TITLE "0:"
    INDEX 01 02:28:51
